<svg width="36" height="36" viewBox="0 0 36 36" fill="none" xmlns="http://www.w3.org/2000/svg">
<path d="M28.65 5.4502H8.35001C6.75501 5.4502 5.45001 6.7552 5.45001 8.3502V28.6502C5.45001 30.2466 6.75501 31.5502 8.35001 31.5502H18.5V21.4002H15.6V17.8114H18.5V14.8389C18.5 11.7011 20.2574 9.49715 23.9607 9.49715L26.5751 9.50005V13.2773H24.8394C23.3981 13.2773 22.85 14.359 22.85 15.3624V17.8129H26.5736L25.75 21.4002H22.85V31.5502H28.65C30.245 31.5502 31.55 30.2466 31.55 28.6502V8.3502C31.55 6.7552 30.245 5.4502 28.65 5.4502Z" fill="#243A3B"/>
<rect x="0.5" y="0.5" width="35" height="35" stroke="#243A3B"/>
</svg>
