<svg width="36" height="36" viewBox="0 0 36 36" fill="none" xmlns="http://www.w3.org/2000/svg">
<path d="M19.028 8.00123C19.7577 7.99843 20.4875 8.00576 21.217 8.02323L21.411 8.03023C21.635 8.03823 21.856 8.04823 22.123 8.06023C23.187 8.11023 23.913 8.27823 24.55 8.52523C25.21 8.77923 25.766 9.12323 26.322 9.67923C26.8304 10.1788 27.2238 10.7832 27.475 11.4502C27.722 12.0872 27.89 12.8142 27.94 13.8782C27.952 14.1442 27.962 14.3662 27.97 14.5902L27.976 14.7842C27.9938 15.5134 28.0014 16.2428 27.999 16.9722L28 17.7182V19.0282C28.0025 19.758 27.9948 20.4877 27.977 21.2172L27.971 21.4112C27.963 21.6352 27.953 21.8562 27.941 22.1232C27.891 23.1872 27.721 23.9132 27.475 24.5502C27.2246 25.218 26.8311 25.8228 26.322 26.3222C25.822 26.8306 25.2173 27.224 24.55 27.4752C23.913 27.7222 23.187 27.8902 22.123 27.9402C21.856 27.9522 21.635 27.9622 21.411 27.9702L21.217 27.9762C20.4875 27.994 19.7577 28.0017 19.028 27.9992L18.282 28.0002H16.973C16.2433 28.0027 15.5135 27.995 14.784 27.9772L14.59 27.9712C14.3526 27.9626 14.1153 27.9526 13.878 27.9412C12.814 27.8912 12.088 27.7212 11.45 27.4752C10.7827 27.2246 10.1782 26.8311 9.679 26.3222C9.17004 25.8225 8.77622 25.2178 8.525 24.5502C8.278 23.9132 8.11 23.1872 8.06 22.1232C8.04886 21.8859 8.03886 21.6486 8.03 21.4112L8.025 21.2172C8.00656 20.4877 7.99823 19.758 8 19.0282V16.9722C7.99721 16.2428 8.00454 15.5134 8.022 14.7842L8.029 14.5902C8.037 14.3662 8.047 14.1442 8.059 13.8782C8.109 12.8132 8.277 12.0882 8.524 11.4502C8.77537 10.7829 9.16996 10.1787 9.68 9.68023C10.1789 9.17098 10.783 8.7768 11.45 8.52523C12.088 8.27823 12.813 8.11023 13.878 8.06023L14.59 8.03023L14.784 8.02523C15.5132 8.0068 16.2426 7.99847 16.972 8.00023L19.028 8.00123ZM18 13.0012C17.3375 12.9919 16.6798 13.1143 16.065 13.3613C15.4502 13.6083 14.8906 13.9751 14.4188 14.4403C13.947 14.9055 13.5724 15.4598 13.3167 16.071C13.061 16.6822 12.9293 17.3382 12.9293 18.0007C12.9293 18.6633 13.061 19.3192 13.3167 19.9305C13.5724 20.5417 13.947 21.096 14.4188 21.5612C14.8906 22.0264 15.4502 22.3931 16.065 22.6402C16.6798 22.8872 17.3375 23.0096 18 23.0002C19.3261 23.0002 20.5978 22.4734 21.5355 21.5358C22.4732 20.5981 23 19.3263 23 18.0002C23 16.6741 22.4732 15.4024 21.5355 14.4647C20.5978 13.527 19.3261 13.0012 18 13.0012ZM18 15.0012C18.3985 14.9939 18.7945 15.066 19.1648 15.2134C19.5351 15.3608 19.8723 15.5806 20.1568 15.8598C20.4412 16.139 20.6672 16.4721 20.8214 16.8396C20.9757 17.2071 21.0552 17.6016 21.0553 18.0002C21.0553 18.3988 20.976 18.7934 20.8218 19.1609C20.6677 19.5285 20.4418 19.8617 20.1575 20.141C19.8731 20.4203 19.536 20.6401 19.1657 20.7876C18.7955 20.9352 18.3995 21.0074 18.001 21.0002C17.2053 21.0002 16.4423 20.6842 15.8797 20.1216C15.3171 19.5589 15.001 18.7959 15.001 18.0002C15.001 17.2046 15.3171 16.4415 15.8797 15.8789C16.4423 15.3163 17.2053 15.0002 18.001 15.0002L18 15.0012ZM23.25 11.5012C22.9274 11.5141 22.6223 11.6514 22.3986 11.8842C22.1749 12.117 22.05 12.4274 22.05 12.7502C22.05 13.0731 22.1749 13.3834 22.3986 13.6163C22.6223 13.8491 22.9274 13.9863 23.25 13.9992C23.5815 13.9992 23.8995 13.8675 24.1339 13.6331C24.3683 13.3987 24.5 13.0808 24.5 12.7492C24.5 12.4177 24.3683 12.0998 24.1339 11.8653C23.8995 11.6309 23.5815 11.4992 23.25 11.4992V11.5012Z" fill="#243A3B"/>
<rect x="0.5" y="0.5" width="35" height="35" stroke="#243A3B"/>
</svg>
