<svg width="36" height="36" viewBox="0 0 36 36" fill="none" xmlns="http://www.w3.org/2000/svg">
<path d="M26.225 9.72857C25.1554 8.64815 23.8814 7.79151 22.4772 7.20863C21.0731 6.62574 19.567 6.32827 18.0467 6.33357C11.6767 6.33357 6.485 11.5252 6.485 17.8952C6.485 19.9369 7.02166 21.9202 8.025 23.6702L6.39166 29.6669L12.5167 28.0569C14.2083 28.9786 16.11 29.4686 18.0467 29.4686C24.4167 29.4686 29.6083 24.2769 29.6083 17.9069C29.6083 14.8152 28.4067 11.9102 26.225 9.72857ZM18.0467 27.5086C16.32 27.5086 14.6283 27.0419 13.1467 26.1669L12.7967 25.9569L9.15666 26.9136L10.125 23.3669L9.89166 23.0052C8.93237 21.4734 8.42299 19.7027 8.42166 17.8952C8.42166 12.5986 12.7383 8.2819 18.035 8.2819C20.6017 8.2819 23.0167 9.28523 24.825 11.1052C25.7204 11.9965 26.43 13.0567 26.9126 14.2242C27.3953 15.3918 27.6414 16.6435 27.6367 17.9069C27.66 23.2036 23.3433 27.5086 18.0467 27.5086ZM23.32 20.3219C23.0283 20.1819 21.605 19.4819 21.3483 19.3769C21.08 19.2836 20.8933 19.2369 20.695 19.5169C20.4967 19.8086 19.9483 20.4619 19.785 20.6486C19.6217 20.8469 19.4467 20.8702 19.155 20.7186C18.8633 20.5786 17.93 20.2636 16.8333 19.2836C15.97 18.5136 15.3983 17.5686 15.2233 17.2769C15.06 16.9852 15.2 16.8336 15.3517 16.6819C15.48 16.5536 15.6433 16.3436 15.7833 16.1802C15.9233 16.0169 15.9817 15.8886 16.075 15.7019C16.1683 15.5036 16.1217 15.3402 16.0517 15.2002C15.9817 15.0602 15.3983 13.6369 15.165 13.0536C14.9317 12.4936 14.6867 12.5636 14.5117 12.5519H13.9517C13.7533 12.5519 13.45 12.6219 13.1817 12.9136C12.925 13.2052 12.1783 13.9052 12.1783 15.3286C12.1783 16.7519 13.2167 18.1286 13.3567 18.3152C13.4967 18.5136 15.3983 21.4302 18.2917 22.6786C18.98 22.9819 19.5167 23.1569 19.9367 23.2852C20.625 23.5069 21.255 23.4719 21.7567 23.4019C22.3167 23.3202 23.4717 22.7019 23.705 22.0252C23.95 21.3486 23.95 20.7769 23.8683 20.6486C23.7867 20.5202 23.6117 20.4619 23.32 20.3219Z" fill="#243A3B"/>
<rect x="0.5" y="0.5" width="35" height="35" stroke="#243A3B"/>
</svg>
